<?xml version="1.0" standalone="no"?>
<!DOCTYPE svg PUBLIC "-//W3C//DTD SVG 20010904//EN"
 "http://www.w3.org/TR/2001/REC-SVG-20010904/DTD/svg10.dtd">
<svg version="1.0" xmlns="http://www.w3.org/2000/svg"
 width="46.000000pt" height="52.000000pt" viewBox="0 0 46.000000 52.000000"
 preserveAspectRatio="xMidYMid meet">

<g transform="translate(0.000000,52.000000) scale(0.100000,-0.100000)"
fill="#000000" stroke="none">
<path d="M0 260 l0 -260 230 0 230 0 0 260 0 260 -230 0 -230 0 0 -260z m101
62 c10 -80 12 -82 67 -82 59 0 70 10 74 74 2 33 9 52 20 60 25 15 41 -5 48
-61 4 -41 9 -50 35 -61 77 -33 80 -36 83 -80 4 -57 -17 -64 -63 -23 -48 42
-91 42 -130 1 -26 -28 -34 -30 -97 -30 -56 0 -69 3 -78 19 -11 22 -14 224 -3
235 20 20 38 -2 44 -52z"/>
</g>
</svg>
